<?xml version="1.0"?><svg width="256" height="256" xmlns="http://www.w3.org/2000/svg">

 <g>
  <title>Layer 1</title>
  <g id="layer1">
   <rect fill="#7f3f00" stroke="#000000" stroke-miterlimit="4" id="rect2380" y="-374.999974" x="-207.555543" height="57.999998" width="86.88889"/>
   <rect fill="#7f3f00" stroke="#000000" stroke-miterlimit="4" id="rect3224" y="-374.999974" x="-120.666653" height="57.999998" width="86.88889"/>
   <rect fill="#7f3f00" stroke="#000000" stroke-miterlimit="4" id="rect3226" y="-374.999974" x="-33.777762" height="57.999998" width="86.88889"/>
   <rect fill="#7f3f00" stroke="#000000" stroke-miterlimit="4" id="rect3228" y="-374.999974" x="53.111128" height="57.999998" width="86.88889"/>
   <rect fill="#7f3f00" stroke="#000000" stroke-miterlimit="4" id="rect3230" y="-374.999974" x="140.000019" height="57.999998" width="86.88889"/>
   <rect fill="#7f3f00" stroke="#000000" stroke-miterlimit="4" id="rect3232" y="-374.999974" x="226.888909" height="57.999998" width="86.88889"/>
   <rect fill="#7f3f00" stroke="#000000" stroke-miterlimit="4" id="rect3234" y="-374.999974" x="313.777799" height="57.999998" width="86.88889"/>
   <rect fill="#7f3f00" stroke="#000000" stroke-miterlimit="4" id="rect3236" y="-374.999974" x="400.66669" height="57.999998" width="86.88889"/>
   <rect fill="#7f3f00" stroke="#000000" stroke-miterlimit="4" id="rect3240" y="-316.999976" x="-250.999948" height="57.999998" width="86.88889"/>
   <rect fill="#7f3f00" stroke="#000000" stroke-miterlimit="4" id="rect3242" y="-316.999976" x="-164.111057" height="57.999998" width="86.88889"/>
   <rect fill="#7f3f00" stroke="#000000" stroke-miterlimit="4" id="rect3244" y="-316.999976" x="-77.222156" height="57.999998" width="86.88889"/>
   <rect fill="#7f3f00" stroke="#000000" stroke-miterlimit="4" id="rect3246" y="-316.999976" x="9.666724" height="57.999998" width="86.88889"/>
   <rect fill="#7f3f00" stroke="#000000" stroke-miterlimit="4" id="rect3248" y="-316.999976" x="96.555628" height="57.999998" width="86.88889"/>
   <rect fill="#7f3f00" stroke="#000000" stroke-miterlimit="4" id="rect3250" y="-316.999976" x="183.444518" height="57.999998" width="86.88889"/>
   <rect fill="#7f3f00" stroke="#000000" stroke-miterlimit="4" id="rect3252" y="-316.999976" x="270.333409" height="57.999998" width="86.88889"/>
   <rect fill="#7f3f00" stroke="#000000" stroke-miterlimit="4" id="rect3254" y="-316.999976" x="357.222299" height="57.999998" width="86.88889"/>
   <rect fill="#7f3f00" stroke="#000000" stroke-miterlimit="4" id="rect3256" y="-316.999976" x="444.111135" height="57.999998" width="86.88889"/>
   <rect fill="#7f3f00" stroke="#000000" stroke-miterlimit="4" id="rect3258" y="-258.999977" x="-207.555616" height="57.999998" width="86.88889"/>
   <rect fill="#7f3f00" stroke="#000000" stroke-miterlimit="4" id="rect3260" y="-258.999977" x="-120.666726" height="57.999998" width="86.88889"/>
   <rect fill="#7f3f00" stroke="#000000" stroke-miterlimit="4" id="rect3262" y="-258.999977" x="-33.777825" height="57.999998" width="86.88889"/>
   <rect fill="#7f3f00" stroke="#000000" stroke-miterlimit="4" id="rect3264" y="-258.999977" x="53.111044" height="57.999998" width="86.88889"/>
   <rect fill="#7f3f00" stroke="#000000" stroke-miterlimit="4" id="rect3266" y="-258.999977" x="139.999964" height="57.999998" width="86.88889"/>
   <rect fill="#7f3f00" stroke="#000000" stroke-miterlimit="4" id="rect3268" y="-258.999977" x="226.888855" height="57.999998" width="86.88889"/>
   <rect fill="#7f3f00" stroke="#000000" stroke-miterlimit="4" id="rect3270" y="-258.999977" x="313.777718" height="57.999998" width="86.88889"/>
   <rect fill="#7f3f00" stroke="#000000" stroke-miterlimit="4" id="rect3272" y="-258.999977" x="400.666608" height="57.999998" width="86.88889"/>
   <rect fill="#7f3f00" stroke="#000000" stroke-miterlimit="4" id="rect3276" y="-200.999979" x="-251.000018" height="57.999998" width="86.88889"/>
   <rect fill="#7f3f00" stroke="#000000" stroke-miterlimit="4" id="rect3278" y="-200.999979" x="-164.111125" height="57.999998" width="86.88889"/>
   <rect fill="#7f3f00" stroke="#000000" stroke-miterlimit="4" id="rect3280" y="-200.999979" x="-77.222229" height="57.999998" width="86.88889"/>
   <rect fill="#7f3f00" stroke="#000000" stroke-miterlimit="4" id="rect3282" y="-200.999979" x="9.666642" height="57.999998" width="86.88889"/>
   <rect fill="#7f3f00" stroke="#000000" stroke-miterlimit="4" id="rect3284" y="-200.999979" x="96.555573" height="57.999998" width="86.88889"/>
   <rect fill="#7f3f00" stroke="#000000" stroke-miterlimit="4" id="rect3286" y="-200.999979" x="183.444464" height="57.999998" width="86.88889"/>
   <rect fill="#7f3f00" stroke="#000000" stroke-miterlimit="4" id="rect3288" y="-200.999979" x="270.333354" height="57.999998" width="86.88889"/>
   <rect fill="#7f3f00" stroke="#000000" stroke-miterlimit="4" id="rect3290" y="-200.999979" x="357.222245" height="57.999998" width="86.88889"/>
   <rect fill="#7f3f00" stroke="#000000" stroke-miterlimit="4" id="rect3292" y="-200.999979" x="444.111054" height="57.999998" width="86.88889"/>
   <rect fill="#7f3f00" stroke="#000000" stroke-miterlimit="4" id="rect3294" y="-142.99998" x="-207.555512" height="57.999998" width="86.88889"/>
   <rect fill="#7f3f00" stroke="#000000" stroke-miterlimit="4" id="rect3296" y="-142.99998" x="-120.666623" height="57.999998" width="86.88889"/>
   <rect fill="#7f3f00" stroke="#000000" stroke-miterlimit="4" id="rect3298" y="-142.99998" x="-33.777722" height="57.999998" width="86.88889"/>
   <rect fill="#7f3f00" stroke="#000000" stroke-miterlimit="4" id="rect3300" y="-142.99998" x="53.111169" height="57.999998" width="86.88889"/>
   <rect fill="#7f3f00" stroke="#000000" stroke-miterlimit="4" id="rect3302" y="-142.99998" x="140.000073" height="57.999998" width="86.88889"/>
   <rect fill="#7f3f00" stroke="#000000" stroke-miterlimit="4" id="rect3304" y="-142.99998" x="226.888963" height="57.999998" width="86.88889"/>
   <rect fill="#7f3f00" stroke="#000000" stroke-miterlimit="4" id="rect3306" y="-142.99998" x="313.777799" height="57.999998" width="86.88889"/>
   <rect fill="#7f3f00" stroke="#000000" stroke-miterlimit="4" id="rect3308" y="-142.99998" x="400.66669" height="57.999998" width="86.88889"/>
   <rect fill="#7f3f00" stroke="#000000" stroke-miterlimit="4" id="rect3310" y="-84.999982" x="-250.999915" height="57.999998" width="86.88889"/>
   <rect fill="#7f3f00" stroke="#000000" stroke-miterlimit="4" id="rect3312" y="-84.999982" x="-164.111025" height="57.999998" width="86.88889"/>
   <rect fill="#7f3f00" stroke="#000000" stroke-miterlimit="4" id="rect3314" y="-84.999982" x="-77.222134" height="57.999998" width="86.88889"/>
   <rect fill="#7f3f00" stroke="#000000" stroke-miterlimit="4" id="rect3316" y="-84.999982" x="9.666767" height="57.999998" width="86.88889"/>
   <rect fill="#7f3f00" stroke="#000000" stroke-miterlimit="4" id="rect3318" y="-84.999982" x="96.555655" height="57.999998" width="86.88889"/>
   <rect fill="#7f3f00" stroke="#000000" stroke-miterlimit="4" id="rect3320" y="-84.999982" x="183.444545" height="57.999998" width="86.88889"/>
   <rect fill="#7f3f00" stroke="#000000" stroke-miterlimit="4" id="rect3322" y="-84.999982" x="270.333436" height="57.999998" width="86.88889"/>
   <rect fill="#7f3f00" stroke="#000000" stroke-miterlimit="4" id="rect3324" y="-84.999982" x="357.222326" height="57.999998" width="86.88889"/>
   <rect fill="#7f3f00" stroke="#000000" stroke-miterlimit="4" id="rect3326" y="-84.999982" x="444.111135" height="57.999998" width="86.88889"/>
   <rect fill="#7f3f00" stroke="#000000" stroke-miterlimit="4" id="rect3328" y="-26.999984" x="-207.555595" height="57.999998" width="86.88889"/>
   <rect fill="#7f3f00" stroke="#000000" stroke-miterlimit="4" id="rect3330" y="-26.999984" x="-120.666704" height="57.999998" width="86.88889"/>
   <rect fill="#7f3f00" stroke="#000000" stroke-miterlimit="4" id="rect3332" y="-26.999984" x="-33.777814" height="57.999998" width="86.88889"/>
   <rect fill="#7f3f00" stroke="#000000" stroke-miterlimit="4" id="rect3334" y="-26.999984" x="53.111087" height="57.999998" width="86.88889"/>
   <rect fill="#7f3f00" stroke="#000000" stroke-miterlimit="4" id="rect3336" y="-26.999984" x="139.999964" height="57.999998" width="86.88889"/>
   <rect fill="#7f3f00" stroke="#000000" stroke-miterlimit="4" id="rect3338" y="-26.999984" x="226.888909" height="57.999998" width="86.88889"/>
   <rect fill="#7f3f00" stroke="#000000" stroke-miterlimit="4" id="rect3340" y="-26.999984" x="313.777718" height="57.999998" width="86.88889"/>
   <rect fill="#7f3f00" stroke="#000000" stroke-miterlimit="4" id="rect3342" y="-26.999984" x="400.666608" height="57.999998" width="86.88889"/>
   <rect fill="#7f3f00" stroke="#000000" stroke-miterlimit="4" id="rect3344" y="31.000015" x="-250.999989" height="57.999998" width="86.88889"/>
   <rect fill="#7f3f00" stroke="#000000" stroke-miterlimit="4" id="rect3346" y="31.000015" x="-164.111087" height="57.999998" width="86.88889"/>
   <rect fill="#7f3f00" stroke="#000000" stroke-miterlimit="4" id="rect3348" y="31.000015" x="-77.222178" height="57.999998" width="86.88889"/>
   <rect fill="#7f3f00" stroke="#000000" stroke-miterlimit="4" id="rect3350" y="31.000015" x="9.666683" height="57.999998" width="86.88889"/>
   <rect fill="#7f3f00" stroke="#000000" stroke-miterlimit="4" id="rect3352" y="31.000015" x="96.555628" height="57.999998" width="86.88889"/>
   <rect fill="#7f3f00" stroke="#000000" stroke-miterlimit="4" id="rect3354" y="31.000015" x="183.444518" height="57.999998" width="86.88889"/>
   <rect fill="#7f3f00" stroke="#000000" stroke-miterlimit="4" id="rect3356" y="31.000015" x="270.333409" height="57.999998" width="86.88889"/>
   <rect fill="#7f3f00" stroke="#000000" stroke-miterlimit="4" id="rect3358" y="31.000015" x="357.222245" height="57.999998" width="86.88889"/>
   <rect fill="#7f3f00" stroke="#000000" stroke-miterlimit="4" id="rect3360" y="31.000015" x="444.111054" height="57.999998" width="86.88889"/>
   <rect fill="#7f3f00" stroke="#000000" stroke-miterlimit="4" id="rect3362" y="89.000013" x="-207.555523" height="57.999998" width="86.88889"/>
   <rect fill="#7f3f00" stroke="#000000" stroke-miterlimit="4" id="rect3364" y="89.000013" x="-120.666631" height="57.999998" width="86.88889"/>
   <rect fill="#7f3f00" stroke="#000000" stroke-miterlimit="4" id="rect3366" y="89.000013" x="-33.777741" height="57.999998" width="86.88889"/>
   <rect fill="#7f3f00" stroke="#000000" stroke-miterlimit="4" id="rect3368" y="89.000013" x="53.11115" height="57.999998" width="86.88889"/>
   <rect fill="#7f3f00" stroke="#000000" stroke-miterlimit="4" id="rect3370" y="89.000013" x="140.000019" height="57.999998" width="86.88889"/>
   <rect fill="#7f3f00" stroke="#000000" stroke-miterlimit="4" id="rect3372" y="89.000013" x="226.888909" height="57.999998" width="86.88889"/>
   <rect fill="#7f3f00" stroke="#000000" stroke-miterlimit="4" id="rect3374" y="89.000013" x="313.777799" height="57.999998" width="86.88889"/>
   <rect fill="#7f3f00" stroke="#000000" stroke-miterlimit="4" id="rect3376" y="89.000013" x="400.66669" height="57.999998" width="86.88889"/>
   <rect fill="#7f3f00" stroke="#000000" stroke-miterlimit="4" id="rect3378" y="147.000011" x="-250.999926" height="57.999998" width="86.88889"/>
   <rect fill="#7f3f00" stroke="#000000" stroke-miterlimit="4" id="rect3380" y="147.000011" x="-164.111036" height="57.999998" width="86.88889"/>
   <rect fill="#7f3f00" stroke="#000000" stroke-miterlimit="4" id="rect3382" y="147.000011" x="-77.222134" height="57.999998" width="86.88889"/>
   <rect fill="#7f3f00" stroke="#000000" stroke-miterlimit="4" id="rect3384" y="147.000011" x="9.666745" height="57.999998" width="86.88889"/>
   <rect fill="#7f3f00" stroke="#000000" stroke-miterlimit="4" id="rect3386" y="147.000011" x="96.555655" height="57.999998" width="86.88889"/>
   <rect fill="#7f3f00" stroke="#000000" stroke-miterlimit="4" id="rect3388" y="147.000011" x="183.444545" height="57.999998" width="86.88889"/>
   <rect fill="#7f3f00" stroke="#000000" stroke-miterlimit="4" id="rect3390" y="147.000011" x="270.333409" height="57.999998" width="86.88889"/>
   <rect fill="#7f3f00" stroke="#000000" stroke-miterlimit="4" id="rect3392" y="147.000011" x="357.222299" height="57.999998" width="86.88889"/>
   <rect fill="#7f3f00" stroke="#000000" stroke-miterlimit="4" id="rect3394" y="147.000011" x="444.111135" height="57.999998" width="86.88889"/>
   <rect fill="#7f3f00" stroke="#000000" stroke-miterlimit="4" id="rect3396" y="205.00001" x="-207.555595" height="57.999998" width="86.88889"/>
   <rect fill="#7f3f00" stroke="#000000" stroke-miterlimit="4" id="rect3398" y="205.00001" x="-120.666704" height="57.999998" width="86.88889"/>
   <rect fill="#7f3f00" stroke="#000000" stroke-miterlimit="4" id="rect3400" y="205.00001" x="-33.777803" height="57.999998" width="86.88889"/>
   <rect fill="#7f3f00" stroke="#000000" stroke-miterlimit="4" id="rect3402" y="205.00001" x="53.111066" height="57.999998" width="86.88889"/>
   <rect fill="#7f3f00" stroke="#000000" stroke-miterlimit="4" id="rect3404" y="205.00001" x="139.999964" height="57.999998" width="86.88889"/>
   <rect fill="#7f3f00" stroke="#000000" stroke-miterlimit="4" id="rect3406" y="205.00001" x="226.888855" height="57.999998" width="86.88889"/>
   <rect fill="#7f3f00" stroke="#000000" stroke-miterlimit="4" id="rect3408" y="205.00001" x="313.777718" height="57.999998" width="86.88889"/>
   <rect fill="#7f3f00" stroke="#000000" stroke-miterlimit="4" id="rect3410" y="205.00001" x="400.666608" height="57.999998" width="86.88889"/>
   <rect fill="#7f3f00" stroke="#000000" stroke-miterlimit="4" id="rect3412" y="263.000008" x="-250.999999" height="57.999998" width="86.88889"/>
   <rect fill="#7f3f00" stroke="#000000" stroke-miterlimit="4" id="rect3414" y="263.000008" x="-164.111106" height="57.999998" width="86.88889"/>
   <rect fill="#7f3f00" stroke="#000000" stroke-miterlimit="4" id="rect3416" y="263.000008" x="-77.222208" height="57.999998" width="86.88889"/>
   <rect fill="#7f3f00" stroke="#000000" stroke-miterlimit="4" id="rect3418" y="263.000008" x="9.666661" height="57.999998" width="86.88889"/>
   <rect fill="#7f3f00" stroke="#000000" stroke-miterlimit="4" id="rect3420" y="263.000008" x="96.5556" height="57.999998" width="86.88889"/>
   <rect fill="#7f3f00" stroke="#000000" stroke-miterlimit="4" id="rect3422" y="263.000008" x="183.444464" height="57.999998" width="86.88889"/>
   <rect fill="#7f3f00" stroke="#000000" stroke-miterlimit="4" id="rect3424" y="263.000008" x="270.333354" height="57.999998" width="86.88889"/>
   <rect fill="#7f3f00" stroke="#000000" stroke-miterlimit="4" id="rect3426" y="263.000008" x="357.222245" height="57.999998" width="86.88889"/>
   <rect fill="#7f3f00" stroke="#000000" stroke-miterlimit="4" id="rect3428" y="263.000008" x="444.111054" height="57.999998" width="86.88889"/>
   <rect fill="#7f3f00" stroke="#000000" stroke-miterlimit="4" id="rect3430" y="321.000007" x="-207.555491" height="57.999998" width="86.88889"/>
   <rect fill="#7f3f00" stroke="#000000" stroke-miterlimit="4" id="rect3432" y="321.000007" x="-120.666601" height="57.999998" width="86.88889"/>
   <rect fill="#7f3f00" stroke="#000000" stroke-miterlimit="4" id="rect3434" y="321.000007" x="-33.7777" height="57.999998" width="86.88889"/>
   <rect fill="#7f3f00" stroke="#000000" stroke-miterlimit="4" id="rect3436" y="321.000007" x="53.111191" height="57.999998" width="86.88889"/>
   <rect fill="#7f3f00" stroke="#000000" stroke-miterlimit="4" id="rect3438" y="321.000007" x="140.0001" height="57.999998" width="86.88889"/>
   <rect fill="#7f3f00" stroke="#000000" stroke-miterlimit="4" id="rect3440" y="321.000007" x="226.888963" height="57.999998" width="86.88889"/>
   <rect fill="#7f3f00" stroke="#000000" stroke-miterlimit="4" id="rect3442" y="321.000007" x="313.777799" height="57.999998" width="86.88889"/>
   <rect fill="#7f3f00" stroke="#000000" stroke-miterlimit="4" id="rect3444" y="321.000007" x="400.66669" height="57.999998" width="86.88889"/>
   <rect fill="#7f3f00" stroke="#000000" stroke-miterlimit="4" id="rect3446" y="379.000005" x="-250.999896" height="57.999998" width="86.88889"/>
   <rect fill="#7f3f00" stroke="#000000" stroke-miterlimit="4" id="rect3448" y="379.000005" x="-164.111006" height="57.999998" width="86.88889"/>
   <rect fill="#7f3f00" stroke="#000000" stroke-miterlimit="4" id="rect3450" y="379.000005" x="-77.222115" height="57.999998" width="86.88889"/>
   <rect fill="#7f3f00" stroke="#000000" stroke-miterlimit="4" id="rect3452" y="379.000005" x="9.666786" height="57.999998" width="86.88889"/>
   <rect fill="#7f3f00" stroke="#000000" stroke-miterlimit="4" id="rect3454" y="379.000005" x="96.555682" height="57.999998" width="86.88889"/>
   <rect fill="#7f3f00" stroke="#000000" stroke-miterlimit="4" id="rect3456" y="379.000005" x="183.444545" height="57.999998" width="86.88889"/>
   <rect fill="#7f3f00" stroke="#000000" stroke-miterlimit="4" id="rect3458" y="379.000005" x="270.333436" height="57.999998" width="86.88889"/>
   <rect fill="#7f3f00" stroke="#000000" stroke-miterlimit="4" id="rect3460" y="379.000005" x="357.222326" height="57.999998" width="86.88889"/>
   <rect fill="#7f3f00" stroke="#000000" stroke-miterlimit="4" id="rect3462" y="379.000005" x="444.111135" height="57.999998" width="86.88889"/>
   <rect fill="#7f3f00" stroke="#000000" stroke-miterlimit="4" id="rect3464" y="437.000003" x="-207.555574" height="57.999998" width="86.88889"/>
   <rect fill="#7f3f00" stroke="#000000" stroke-miterlimit="4" id="rect3466" y="437.000003" x="-120.666683" height="57.999998" width="86.88889"/>
   <rect fill="#7f3f00" stroke="#000000" stroke-miterlimit="4" id="rect3468" y="437.000003" x="-33.777792" height="57.999998" width="86.88889"/>
   <rect fill="#7f3f00" stroke="#000000" stroke-miterlimit="4" id="rect3470" y="437.000003" x="53.111106" height="57.999998" width="86.88889"/>
   <rect fill="#7f3f00" stroke="#000000" stroke-miterlimit="4" id="rect3472" y="437.000003" x="139.999964" height="57.999998" width="86.88889"/>
   <rect fill="#7f3f00" stroke="#000000" stroke-miterlimit="4" id="rect3474" y="437.000003" x="226.888909" height="57.999998" width="86.88889"/>
   <rect fill="#7f3f00" stroke="#000000" stroke-miterlimit="4" id="rect3476" y="437.000003" x="313.777718" height="57.999998" width="86.88889"/>
   <rect fill="#7f3f00" stroke="#000000" stroke-miterlimit="4" id="rect3478" y="437.000003" x="400.666608" height="57.999998" width="86.88889"/>
   <rect fill="#7f3f00" stroke="#000000" stroke-miterlimit="4" id="rect3480" y="495.000002" x="-250.999967" height="57.999998" width="86.88889"/>
   <rect fill="#7f3f00" stroke="#000000" stroke-miterlimit="4" id="rect3482" y="495.000002" x="-164.111068" height="57.999998" width="86.88889"/>
   <rect fill="#7f3f00" stroke="#000000" stroke-miterlimit="4" id="rect3484" y="495.000002" x="-77.222156" height="57.999998" width="86.88889"/>
   <rect fill="#7f3f00" stroke="#000000" stroke-miterlimit="4" id="rect3486" y="495.000002" x="9.666705" height="57.999998" width="86.88889"/>
   <rect fill="#7f3f00" stroke="#000000" stroke-miterlimit="4" id="rect3488" y="495.000002" x="96.555655" height="57.999998" width="86.88889"/>
   <rect fill="#7f3f00" stroke="#000000" stroke-miterlimit="4" id="rect3490" y="495.000002" x="183.444545" height="57.999998" width="86.88889"/>
   <rect fill="#7f3f00" stroke="#000000" stroke-miterlimit="4" id="rect3492" y="495.000002" x="270.333409" height="57.999998" width="86.88889"/>
   <rect fill="#7f3f00" stroke="#000000" stroke-miterlimit="4" id="rect3494" y="495.000002" x="357.222245" height="57.999998" width="86.88889"/>
   <rect fill="#7f3f00" stroke="#000000" stroke-miterlimit="4" id="rect3496" y="495.000002" x="444.111054" height="57.999998" width="86.88889"/>
  </g>
 </g>
</svg>